<svg xmlns="http://www.w3.org/2000/svg" xmlns:xlink="http://www.w3.org/1999/xlink" width="590" height="210" viewBox="0 0 590 210">
<defs><path id="sg44" d="M4.37 16.30L6.07 16.30L5.85 18.00L4.15 18.00ZM3.04 17.89L1.56 20.09L2.62 20.71L4.10 18.51Z"/><path id="sg45" d="M1.59 9.00L2.47 8.22L5.08 8.22L5.75 9.00L4.87 9.78L2.26 9.78ZM6.59 9.00L7.47 8.22L10.08 8.22L10.75 9.00L9.87 9.78L7.26 9.78Z"/><path id="sg46" d="M4.37 16.30L6.07 16.30L5.85 18.00L4.15 18.00Z"/><path id="sg48" d="M2.76 0.00L3.64 -0.78L11.25 -0.78L11.92 0.00L11.04 0.78L3.43 0.78ZM12.29 0.42L12.96 1.20L12.10 7.80L11.22 8.58L10.55 7.80L11.41 1.20ZM11.12 9.42L11.79 10.20L10.93 16.80L10.05 17.58L9.38 16.80L10.24 10.20ZM0.42 18.00L1.30 17.23L8.91 17.23L9.58 18.00L8.70 18.77L1.09 18.77ZM1.12 9.42L1.79 10.20L0.93 16.80L0.05 17.58L-0.62 16.80L0.24 10.20ZM2.29 0.42L2.96 1.20L2.10 7.80L1.22 8.58L0.55 7.80L1.41 1.20Z"/><path id="sg50" d="M2.76 0.00L3.64 -0.78L11.25 -0.78L11.92 0.00L11.04 0.78L3.43 0.78ZM12.29 0.42L12.96 1.20L12.10 7.80L11.22 8.58L10.55 7.80L11.41 1.20ZM1.59 9.00L2.47 8.22L5.08 8.22L5.75 9.00L4.87 9.78L2.26 9.78ZM6.59 9.00L7.47 8.22L10.08 8.22L10.75 9.00L9.87 9.78L7.26 9.78ZM1.12 9.42L1.79 10.20L0.93 16.80L0.05 17.58L-0.62 16.80L0.24 10.20ZM0.42 18.00L1.30 17.23L8.91 17.23L9.58 18.00L8.70 18.77L1.09 18.77Z"/><path id="sg52" d="M2.29 0.42L2.96 1.20L2.10 7.80L1.22 8.58L0.55 7.80L1.41 1.20ZM1.59 9.00L2.47 8.22L5.08 8.22L5.75 9.00L4.87 9.78L2.26 9.78ZM6.59 9.00L7.47 8.22L10.08 8.22L10.75 9.00L9.87 9.78L7.26 9.78ZM12.29 0.42L12.96 1.20L12.10 7.80L11.22 8.58L10.55 7.80L11.41 1.20ZM11.12 9.42L11.79 10.20L10.93 16.80L10.05 17.58L9.38 16.80L10.24 10.20Z"/><path id="sg54" d="M2.76 0.00L3.64 -0.78L11.25 -0.78L11.92 0.00L11.04 0.78L3.43 0.78ZM2.29 0.42L2.96 1.20L2.10 7.80L1.22 8.58L0.55 7.80L1.41 1.20ZM1.12 9.42L1.79 10.20L0.93 16.80L0.05 17.58L-0.62 16.80L0.24 10.20ZM0.42 18.00L1.30 17.23L8.91 17.23L9.58 18.00L8.70 18.77L1.09 18.77ZM11.12 9.42L11.79 10.20L10.93 16.80L10.05 17.58L9.38 16.80L10.24 10.20ZM1.59 9.00L2.47 8.22L5.08 8.22L5.75 9.00L4.87 9.78L2.26 9.78ZM6.59 9.00L7.47 8.22L10.08 8.22L10.75 9.00L9.87 9.78L7.26 9.78Z"/><path id="sg65" d="M2.76 0.00L3.64 -0.78L11.25 -0.78L11.92 0.00L11.04 0.78L3.43 0.78ZM12.29 0.42L12.96 1.20L12.10 7.80L11.22 8.58L10.55 7.80L11.41 1.20ZM11.12 9.42L11.79 10.20L10.93 16.80L10.05 17.58L9.38 16.80L10.24 10.20ZM1.12 9.42L1.79 10.20L0.93 16.80L0.05 17.58L-0.62 16.80L0.24 10.20ZM2.29 0.42L2.96 1.20L2.10 7.80L1.22 8.58L0.55 7.80L1.41 1.20ZM1.59 9.00L2.47 8.22L5.08 8.22L5.75 9.00L4.87 9.78L2.26 9.78ZM6.59 9.00L7.47 8.22L10.08 8.22L10.75 9.00L9.87 9.78L7.26 9.78Z"/><path id="sg66" d="M2.76 0.00L3.64 -0.78L11.25 -0.78L11.92 0.00L11.04 0.78L3.43 0.78ZM12.29 0.42L12.96 1.20L12.10 7.80L11.22 8.58L10.55 7.80L11.41 1.20ZM11.12 9.42L11.79 10.20L10.93 16.80L10.05 17.58L9.38 16.80L10.24 10.20ZM0.42 18.00L1.30 17.23L8.91 17.23L9.58 18.00L8.70 18.77L1.09 18.77ZM7.29 0.42L7.96 1.20L7.10 7.80L6.22 8.58L5.55 7.80L6.41 1.20ZM6.12 9.42L6.79 10.20L5.93 16.80L5.05 17.58L4.38 16.80L5.24 10.20ZM6.59 9.00L7.47 8.22L10.08 8.22L10.75 9.00L9.87 9.78L7.26 9.78Z"/><path id="sg67" d="M2.76 0.00L3.64 -0.78L11.25 -0.78L11.92 0.00L11.04 0.78L3.43 0.78ZM0.42 18.00L1.30 17.23L8.91 17.23L9.58 18.00L8.70 18.77L1.09 18.77ZM1.12 9.42L1.79 10.20L0.93 16.80L0.05 17.58L-0.62 16.80L0.24 10.20ZM2.29 0.42L2.96 1.20L2.10 7.80L1.22 8.58L0.55 7.80L1.41 1.20Z"/><path id="sg68" d="M2.76 0.00L3.64 -0.78L11.25 -0.78L11.92 0.00L11.04 0.78L3.43 0.78ZM12.29 0.42L12.96 1.20L12.10 7.80L11.22 8.58L10.55 7.80L11.41 1.20ZM11.12 9.42L11.79 10.20L10.93 16.80L10.05 17.58L9.38 16.80L10.24 10.20ZM0.42 18.00L1.30 17.23L8.91 17.23L9.58 18.00L8.70 18.77L1.09 18.77ZM7.29 0.42L7.96 1.20L7.10 7.80L6.22 8.58L5.55 7.80L6.41 1.20ZM6.12 9.42L6.79 10.20L5.93 16.80L5.05 17.58L4.38 16.80L5.24 10.20Z"/><path id="sg69" d="M2.76 0.00L3.64 -0.78L11.25 -0.78L11.92 0.00L11.04 0.78L3.43 0.78ZM0.42 18.00L1.30 17.23L8.91 17.23L9.58 18.00L8.70 18.77L1.09 18.77ZM1.12 9.42L1.79 10.20L0.93 16.80L0.05 17.58L-0.62 16.80L0.24 10.20ZM2.29 0.42L2.96 1.20L2.10 7.80L1.22 8.58L0.55 7.80L1.41 1.20ZM1.59 9.00L2.47 8.22L5.08 8.22L5.75 9.00L4.87 9.78L2.26 9.78ZM6.59 9.00L7.47 8.22L10.08 8.22L10.75 9.00L9.87 9.78L7.26 9.78Z"/><path id="sg70" d="M2.76 0.00L3.64 -0.78L11.25 -0.78L11.92 0.00L11.04 0.78L3.43 0.78ZM1.12 9.42L1.79 10.20L0.93 16.80L0.05 17.58L-0.62 16.80L0.24 10.20ZM2.29 0.42L2.96 1.20L2.10 7.80L1.22 8.58L0.55 7.80L1.41 1.20ZM1.59 9.00L2.47 8.22L5.08 8.22L5.75 9.00L4.87 9.78L2.26 9.78Z"/><path id="sg71" d="M2.76 0.00L3.64 -0.78L11.25 -0.78L11.92 0.00L11.04 0.78L3.43 0.78ZM11.12 9.42L11.79 10.20L10.93 16.80L10.05 17.58L9.38 16.80L10.24 10.20ZM0.42 18.00L1.30 17.23L8.91 17.23L9.58 18.00L8.70 18.77L1.09 18.77ZM1.12 9.42L1.79 10.20L0.93 16.80L0.05 17.58L-0.62 16.80L0.24 10.20ZM2.29 0.42L2.96 1.20L2.10 7.80L1.22 8.58L0.55 7.80L1.41 1.20ZM6.59 9.00L7.47 8.22L10.08 8.22L10.75 9.00L9.87 9.78L7.26 9.78Z"/><path id="sg72" d="M12.29 0.42L12.96 1.20L12.10 7.80L11.22 8.58L10.55 7.80L11.41 1.20ZM11.12 9.42L11.79 10.20L10.93 16.80L10.05 17.58L9.38 16.80L10.24 10.20ZM1.12 9.42L1.79 10.20L0.93 16.80L0.05 17.58L-0.62 16.80L0.24 10.20ZM2.29 0.42L2.96 1.20L2.10 7.80L1.22 8.58L0.55 7.80L1.41 1.20ZM1.59 9.00L2.47 8.22L5.08 8.22L5.75 9.00L4.87 9.78L2.26 9.78ZM6.59 9.00L7.47 8.22L10.08 8.22L10.75 9.00L9.87 9.78L7.26 9.78Z"/><path id="sg73" d="M2.76 0.00L3.64 -0.78L11.25 -0.78L11.92 0.00L11.04 0.78L3.43 0.78ZM0.42 18.00L1.30 17.23L8.91 17.23L9.58 18.00L8.70 18.77L1.09 18.77ZM7.29 0.42L7.96 1.20L7.10 7.80L6.22 8.58L5.55 7.80L6.41 1.20ZM6.12 9.42L6.79 10.20L5.93 16.80L5.05 17.58L4.38 16.80L5.24 10.20Z"/><path id="sg74" d="M12.29 0.42L12.96 1.20L12.10 7.80L11.22 8.58L10.55 7.80L11.41 1.20ZM11.12 9.42L11.79 10.20L10.93 16.80L10.05 17.58L9.38 16.80L10.24 10.20ZM0.42 18.00L1.30 17.23L8.91 17.23L9.58 18.00L8.70 18.77L1.09 18.77ZM1.12 9.42L1.79 10.20L0.93 16.80L0.05 17.58L-0.62 16.80L0.24 10.20Z"/><path id="sg75" d="M1.12 9.42L1.79 10.20L0.93 16.80L0.05 17.58L-0.62 16.80L0.24 10.20ZM2.29 0.42L2.96 1.20L2.10 7.80L1.22 8.58L0.55 7.80L1.41 1.20ZM1.59 9.00L2.47 8.22L5.08 8.22L5.75 9.00L4.87 9.78L2.26 9.78ZM10.11 1.22L6.69 7.54L7.83 8.04L11.25 1.72ZM9.35 16.28L7.58 9.96L6.31 10.46L8.08 16.78Z"/><path id="sg76" d="M0.42 18.00L1.30 17.23L8.91 17.23L9.58 18.00L8.70 18.77L1.09 18.77ZM1.12 9.42L1.79 10.20L0.93 16.80L0.05 17.58L-0.62 16.80L0.24 10.20ZM2.29 0.42L2.96 1.20L2.10 7.80L1.22 8.58L0.55 7.80L1.41 1.20Z"/><path id="sg77" d="M12.29 0.42L12.96 1.20L12.10 7.80L11.22 8.58L10.55 7.80L11.41 1.20ZM11.12 9.42L11.79 10.20L10.93 16.80L10.05 17.58L9.38 16.80L10.24 10.20ZM1.12 9.42L1.79 10.20L0.93 16.80L0.05 17.58L-0.62 16.80L0.24 10.20ZM2.29 0.42L2.96 1.20L2.10 7.80L1.22 8.58L0.55 7.80L1.41 1.20ZM2.99 1.72L4.76 8.04L6.03 7.54L4.26 1.22ZM10.11 1.22L6.69 7.54L7.83 8.04L11.25 1.72Z"/><path id="sg78" d="M12.29 0.42L12.96 1.20L12.10 7.80L11.22 8.58L10.55 7.80L11.41 1.20ZM11.12 9.42L11.79 10.20L10.93 16.80L10.05 17.58L9.38 16.80L10.24 10.20ZM1.12 9.42L1.79 10.20L0.93 16.80L0.05 17.58L-0.62 16.80L0.24 10.20ZM2.29 0.42L2.96 1.20L2.10 7.80L1.22 8.58L0.55 7.80L1.41 1.20ZM2.99 1.72L4.76 8.04L6.03 7.54L4.26 1.22ZM9.35 16.28L7.58 9.96L6.31 10.46L8.08 16.78Z"/><path id="sg79" d="M2.76 0.00L3.64 -0.78L11.25 -0.78L11.92 0.00L11.04 0.78L3.43 0.78ZM12.29 0.42L12.96 1.20L12.10 7.80L11.22 8.58L10.55 7.80L11.41 1.20ZM11.12 9.42L11.79 10.20L10.93 16.80L10.05 17.58L9.38 16.80L10.24 10.20ZM0.42 18.00L1.30 17.23L8.91 17.23L9.58 18.00L8.70 18.77L1.09 18.77ZM1.12 9.42L1.79 10.20L0.93 16.80L0.05 17.58L-0.62 16.80L0.24 10.20ZM2.29 0.42L2.96 1.20L2.10 7.80L1.22 8.58L0.55 7.80L1.41 1.20Z"/><path id="sg80" d="M2.76 0.00L3.64 -0.78L11.25 -0.78L11.92 0.00L11.04 0.78L3.43 0.78ZM12.29 0.42L12.96 1.20L12.10 7.80L11.22 8.58L10.55 7.80L11.41 1.20ZM1.12 9.42L1.79 10.20L0.93 16.80L0.05 17.58L-0.62 16.80L0.24 10.20ZM2.29 0.42L2.96 1.20L2.10 7.80L1.22 8.58L0.55 7.80L1.41 1.20ZM1.59 9.00L2.47 8.22L5.08 8.22L5.75 9.00L4.87 9.78L2.26 9.78ZM6.59 9.00L7.47 8.22L10.08 8.22L10.75 9.00L9.87 9.78L7.26 9.78Z"/><path id="sg82" d="M2.76 0.00L3.64 -0.78L11.25 -0.78L11.92 0.00L11.04 0.78L3.43 0.78ZM12.29 0.42L12.96 1.20L12.10 7.80L11.22 8.58L10.55 7.80L11.41 1.20ZM1.12 9.42L1.79 10.20L0.93 16.80L0.05 17.58L-0.62 16.80L0.24 10.20ZM2.29 0.42L2.96 1.20L2.10 7.80L1.22 8.58L0.55 7.80L1.41 1.20ZM1.59 9.00L2.47 8.22L5.08 8.22L5.75 9.00L4.87 9.78L2.26 9.78ZM6.59 9.00L7.47 8.22L10.08 8.22L10.75 9.00L9.87 9.78L7.26 9.78ZM9.35 16.28L7.58 9.96L6.31 10.46L8.08 16.78Z"/><path id="sg83" d="M2.76 0.00L3.64 -0.78L11.25 -0.78L11.92 0.00L11.04 0.78L3.43 0.78ZM2.29 0.42L2.96 1.20L2.10 7.80L1.22 8.58L0.55 7.80L1.41 1.20ZM1.59 9.00L2.47 8.22L5.08 8.22L5.75 9.00L4.87 9.78L2.26 9.78ZM6.59 9.00L7.47 8.22L10.08 8.22L10.75 9.00L9.87 9.78L7.26 9.78ZM11.12 9.42L11.79 10.20L10.93 16.80L10.05 17.58L9.38 16.80L10.24 10.20ZM0.42 18.00L1.30 17.23L8.91 17.23L9.58 18.00L8.70 18.77L1.09 18.77Z"/><path id="sg84" d="M2.76 0.00L3.64 -0.78L11.25 -0.78L11.92 0.00L11.04 0.78L3.43 0.78ZM7.29 0.42L7.96 1.20L7.10 7.80L6.22 8.58L5.55 7.80L6.41 1.20ZM6.12 9.42L6.79 10.20L5.93 16.80L5.05 17.58L4.38 16.80L5.24 10.20Z"/><path id="sg85" d="M12.29 0.42L12.96 1.20L12.10 7.80L11.22 8.58L10.55 7.80L11.41 1.20ZM11.12 9.42L11.79 10.20L10.93 16.80L10.05 17.58L9.38 16.80L10.24 10.20ZM0.42 18.00L1.30 17.23L8.91 17.23L9.58 18.00L8.70 18.77L1.09 18.77ZM1.12 9.42L1.79 10.20L0.93 16.80L0.05 17.58L-0.62 16.80L0.24 10.20ZM2.29 0.42L2.96 1.20L2.10 7.80L1.22 8.58L0.55 7.80L1.41 1.20Z"/><path id="sg87" d="M12.29 0.42L12.96 1.20L12.10 7.80L11.22 8.58L10.55 7.80L11.41 1.20ZM11.12 9.42L11.79 10.20L10.93 16.80L10.05 17.58L9.38 16.80L10.24 10.20ZM1.12 9.42L1.79 10.20L0.93 16.80L0.05 17.58L-0.62 16.80L0.24 10.20ZM2.29 0.42L2.96 1.20L2.10 7.80L1.22 8.58L0.55 7.80L1.41 1.20ZM2.23 16.78L5.65 10.46L4.51 9.96L1.09 16.28ZM9.35 16.28L7.58 9.96L6.31 10.46L8.08 16.78Z"/><path id="sg89" d="M2.99 1.72L4.76 8.04L6.03 7.54L4.26 1.22ZM10.11 1.22L6.69 7.54L7.83 8.04L11.25 1.72ZM6.12 9.42L6.79 10.20L5.93 16.80L5.05 17.58L4.38 16.80L5.24 10.20Z"/>
<filter id="glow" x="-50%" y="-50%" width="200%" height="200%">
  <feGaussianBlur stdDeviation="2.2" result="b"/><feMerge><feMergeNode in="b"/><feMergeNode in="SourceGraphic"/></feMerge>
</filter>
<filter id="bigglow" x="-50%" y="-50%" width="200%" height="200%">
  <feGaussianBlur stdDeviation="5" result="b"/><feMerge><feMergeNode in="b"/><feMergeNode in="SourceGraphic"/></feMerge>
</filter><linearGradient id="bg" x1="0" y1="0" x2="1" y2="1"><stop offset="0" stop-color="#050816"/><stop offset="1" stop-color="#0b0f2a"/></linearGradient></defs>
<rect width="590" height="210" rx="18" fill="url(#bg)"/><rect x="0.5" y="0.5" width="589" height="209" rx="18" fill="none" stroke="#7dd3fc" stroke-opacity="0.22"/>
<circle cx="546" cy="199" r="0.4" fill="#9bb0ff" opacity="0.60"/>
<circle cx="250" cy="111" r="0.4" fill="#ffd2a1" opacity="0.40"/>
<circle cx="262" cy="46" r="0.5" fill="#9bb0ff" opacity="0.35"/>
<circle cx="579" cy="105" r="0.4" fill="#fff4ea" opacity="0.61"/>
<circle cx="254" cy="162" r="0.4" fill="#ffb56c" opacity="0.32"/>
<circle cx="218" cy="36" r="0.4" fill="#ffd2a1" opacity="0.48"/>
<circle cx="448" cy="77" r="0.7" fill="#cad7ff" opacity="0.63"/>
<circle cx="185" cy="18" r="0.5" fill="#aabfff" opacity="0.66"/>
<circle cx="348" cy="94" r="0.7" fill="#aabfff" opacity="0.39"/>
<circle cx="105" cy="68" r="0.7" fill="#aabfff" opacity="0.59"/>
<circle cx="49" cy="89" r="0.7" fill="#cad7ff" opacity="0.77"/>
<circle cx="166" cy="124" r="0.4" fill="#cad7ff" opacity="0.75"/>
<circle cx="320" cy="188" r="0.5" fill="#fff4ea" opacity="0.41"/>
<circle cx="88" cy="130" r="0.4" fill="#ffd2a1" opacity="0.70"/>
<circle cx="291" cy="69" r="0.4" fill="#ffd2a1" opacity="0.60"/>
<circle cx="558" cy="35" r="0.4" fill="#9bb0ff" opacity="0.62"/>
<circle cx="232" cy="34" r="0.4" fill="#ffd2a1" opacity="0.31"/>
<circle cx="131" cy="156" r="0.4" fill="#fff4ea" opacity="0.77"/>
<circle cx="263" cy="19" r="0.4" fill="#ffb56c" opacity="0.49"/>
<circle cx="114" cy="16" r="0.5" fill="#fff4ea" opacity="0.40"/>
<circle cx="551" cy="200" r="0.4" fill="#9bb0ff" opacity="0.35"/>
<circle cx="312" cy="36" r="0.7" fill="#fff4ea" opacity="0.71"/>
<circle cx="149" cy="89" r="0.4" fill="#f8f7ff" opacity="0.68"/>
<circle cx="387" cy="87" r="0.4" fill="#fff4ea" opacity="0.64"/>
<circle cx="243" cy="146" r="0.7" fill="#ffd2a1" opacity="0.42"/>
<circle cx="174" cy="86" r="0.7" fill="#fff4ea" opacity="0.57"/>
<circle cx="488" cy="23" r="0.7" fill="#aabfff" opacity="0.47"/>
<circle cx="330" cy="175" r="0.4" fill="#aabfff" opacity="0.78"/>
<circle cx="46" cy="118" r="0.7" fill="#9bb0ff" opacity="0.42"/>
<circle cx="331" cy="99" r="0.5" fill="#ffd2a1" opacity="0.44"/>
<circle cx="200" cy="5" r="0.4" fill="#ffd2a1" opacity="0.73"/>
<circle cx="120" cy="143" r="0.4" fill="#ffd2a1" opacity="0.52"/>
<circle cx="249" cy="17" r="0.7" fill="#cad7ff" opacity="0.54"/>
<circle cx="407" cy="113" r="0.7" fill="#aabfff" opacity="0.56"/>
<circle cx="176" cy="189" r="0.4" fill="#aabfff" opacity="0.74"/>
<circle cx="509" cy="105" r="0.4" fill="#ffd2a1" opacity="0.53"/>
<circle cx="243" cy="143" r="0.5" fill="#cad7ff" opacity="0.70"/>
<circle cx="161" cy="195" r="0.4" fill="#f8f7ff" opacity="0.32"/>
<circle cx="523" cy="140" r="0.7" fill="#cad7ff" opacity="0.57"/>
<circle cx="408" cy="81" r="0.5" fill="#ffb56c" opacity="0.37"/>
<circle cx="219" cy="130" r="0.4" fill="#cad7ff" opacity="0.58"/>
<circle cx="261" cy="180" r="0.5" fill="#ffb56c" opacity="0.73"/>
<circle cx="146" cy="206" r="0.7" fill="#f8f7ff" opacity="0.32"/>
<circle cx="476" cy="58" r="0.5" fill="#fff4ea" opacity="0.37"/>
<circle cx="494" cy="19" r="0.7" fill="#fff4ea" opacity="0.50"/>
<circle cx="401" cy="62" r="0.4" fill="#fff4ea" opacity="0.76"/>
<circle cx="386" cy="36" r="0.4" fill="#ffd2a1" opacity="0.39"/>
<circle cx="11" cy="128" r="0.4" fill="#ffd2a1" opacity="0.45"/>
<circle cx="529" cy="62" r="0.4" fill="#ffb56c" opacity="0.32"/>
<circle cx="448" cy="22" r="0.4" fill="#aabfff" opacity="0.48"/>
<circle cx="94" cy="45" r="1.1" fill="#cad7ff"><animate attributeName="opacity" values="0.2;1;0.2" dur="5.0s" begin="-1.1s" repeatCount="indefinite"/></circle>
<circle cx="346" cy="197" r="1.4" fill="#cad7ff"><animate attributeName="opacity" values="0.2;1;0.2" dur="4.1s" begin="-1.1s" repeatCount="indefinite"/></circle>
<circle cx="331" cy="156" r="1.1" fill="#ffd2a1"><animate attributeName="opacity" values="0.2;1;0.2" dur="5.9s" begin="-4.9s" repeatCount="indefinite"/></circle>
<circle cx="76" cy="80" r="1.1" fill="#ffb56c"><animate attributeName="opacity" values="0.2;1;0.2" dur="5.7s" begin="-2.5s" repeatCount="indefinite"/></circle>
<circle cx="207" cy="44" r="1.4" fill="#fff4ea"><animate attributeName="opacity" values="0.2;1;0.2" dur="2.6s" begin="-1.6s" repeatCount="indefinite"/></circle>
<circle cx="249" cy="9" r="1.4" fill="#f8f7ff"><animate attributeName="opacity" values="0.2;1;0.2" dur="3.9s" begin="-0.8s" repeatCount="indefinite"/></circle>
<circle cx="549" cy="77" r="1.1" fill="#9bb0ff"><animate attributeName="opacity" values="0.2;1;0.2" dur="4.7s" begin="-2.2s" repeatCount="indefinite"/></circle>
<circle cx="102" cy="173" r="1.4" fill="#f8f7ff"><animate attributeName="opacity" values="0.2;1;0.2" dur="5.9s" begin="-2.7s" repeatCount="indefinite"/></circle>
<circle cx="368" cy="90" r="1.4" fill="#aabfff"><animate attributeName="opacity" values="0.2;1;0.2" dur="5.7s" begin="-4.9s" repeatCount="indefinite"/></circle>
<circle cx="390" cy="90" r="0.9" fill="#f8f7ff"><animate attributeName="opacity" values="0.2;1;0.2" dur="5.4s" begin="-2.0s" repeatCount="indefinite"/></circle>
<path d="M14 26V14H26M564 14H576V26M576 184V196H564M26 196H14V184" fill="none" stroke="#7dd3fc" stroke-opacity="0.4" stroke-width="1.5"/>
<g transform="translate(34.0 35.0) scale(0.6111)" ><g fill="#fbbf24"><use xlink:href="#sg79" x="0"/><use xlink:href="#sg66" x="14"/><use xlink:href="#sg74" x="28"/><use xlink:href="#sg45" x="42"/><use xlink:href="#sg48" x="56"/><use xlink:href="#sg52" x="70"/></g></g>
<g transform="translate(430.8 37.0) scale(0.5000)" ><g fill="#64748b"><use xlink:href="#sg85" x="0"/><use xlink:href="#sg80" x="14"/><use xlink:href="#sg68" x="28"/><use xlink:href="#sg65" x="42"/><use xlink:href="#sg84" x="56"/><use xlink:href="#sg69" x="70"/><use xlink:href="#sg68" x="84"/><use xlink:href="#sg50" x="112"/><use xlink:href="#sg48" x="126"/><use xlink:href="#sg50" x="140"/><use xlink:href="#sg54" x="154"/><use xlink:href="#sg45" x="168"/><use xlink:href="#sg48" x="182"/><use xlink:href="#sg54" x="196"/><use xlink:href="#sg45" x="210"/><use xlink:href="#sg50" x="224"/><use xlink:href="#sg54" x="238"/></g></g>
<g transform="translate(34.0 65.0) scale(1.0556)" filter="url(#glow)"><g fill="#e0f2fe"><use xlink:href="#sg87" x="0"/><use xlink:href="#sg79" x="14"/><use xlink:href="#sg82" x="28"/><use xlink:href="#sg75" x="42"/><use xlink:href="#sg73" x="56"/><use xlink:href="#sg78" x="70"/><use xlink:href="#sg71" x="84"/><use xlink:href="#sg45" x="98"/><use xlink:href="#sg87" x="112"/><use xlink:href="#sg73" x="126"/><use xlink:href="#sg84" x="140"/><use xlink:href="#sg72" x="154"/><use xlink:href="#sg45" x="168"/><use xlink:href="#sg73" x="182"/><use xlink:href="#sg66" x="196"/><use xlink:href="#sg77" x="210"/><use xlink:href="#sg45" x="224"/><use xlink:href="#sg71" x="238"/><use xlink:href="#sg82" x="252"/><use xlink:href="#sg65" x="266"/><use xlink:href="#sg78" x="280"/><use xlink:href="#sg73" x="294"/><use xlink:href="#sg84" x="308"/><use xlink:href="#sg69" x="322"/></g></g>
<g transform="translate(34.0 105.0) scale(0.6111)" ><g fill="#94a3b8"><use xlink:href="#sg65" x="0"/><use xlink:href="#sg71" x="28"/><use xlink:href="#sg79" x="42"/><use xlink:href="#sg79" x="56"/><use xlink:href="#sg71" x="70"/><use xlink:href="#sg76" x="84"/><use xlink:href="#sg69" x="98"/><use xlink:href="#sg67" x="126"/><use xlink:href="#sg79" x="140"/><use xlink:href="#sg76" x="154"/><use xlink:href="#sg65" x="168"/><use xlink:href="#sg66" x="182"/><use xlink:href="#sg78" x="210"/><use xlink:href="#sg79" x="224"/><use xlink:href="#sg84" x="238"/><use xlink:href="#sg69" x="252"/><use xlink:href="#sg66" x="266"/><use xlink:href="#sg79" x="280"/><use xlink:href="#sg79" x="294"/><use xlink:href="#sg75" x="308"/><use xlink:href="#sg68" x="336"/><use xlink:href="#sg69" x="350"/><use xlink:href="#sg77" x="364"/><use xlink:href="#sg79" x="378"/><use xlink:href="#sg78" x="392"/><use xlink:href="#sg83" x="406"/><use xlink:href="#sg84" x="420"/><use xlink:href="#sg82" x="434"/><use xlink:href="#sg65" x="448"/><use xlink:href="#sg84" x="462"/><use xlink:href="#sg73" x="476"/><use xlink:href="#sg78" x="490"/><use xlink:href="#sg71" x="504"/><use xlink:href="#sg72" x="532"/><use xlink:href="#sg79" x="546"/><use xlink:href="#sg87" x="560"/><use xlink:href="#sg84" x="588"/><use xlink:href="#sg79" x="602"/><use xlink:href="#sg73" x="630"/><use xlink:href="#sg77" x="644"/><use xlink:href="#sg80" x="658"/><use xlink:href="#sg76" x="672"/><use xlink:href="#sg69" x="686"/><use xlink:href="#sg77" x="700"/><use xlink:href="#sg69" x="714"/><use xlink:href="#sg78" x="728"/><use xlink:href="#sg84" x="742"/><use xlink:href="#sg65" x="770"/><use xlink:href="#sg78" x="784"/><use xlink:href="#sg68" x="798"/></g></g>
<g transform="translate(34.0 125.0) scale(0.6111)" ><g fill="#94a3b8"><use xlink:href="#sg73" x="0"/><use xlink:href="#sg78" x="14"/><use xlink:href="#sg84" x="28"/><use xlink:href="#sg69" x="42"/><use xlink:href="#sg82" x="56"/><use xlink:href="#sg65" x="70"/><use xlink:href="#sg67" x="84"/><use xlink:href="#sg84" x="98"/><use xlink:href="#sg87" x="126"/><use xlink:href="#sg73" x="140"/><use xlink:href="#sg84" x="154"/><use xlink:href="#sg72" x="168"/><use xlink:href="#sg84" x="196"/><use xlink:href="#sg72" x="210"/><use xlink:href="#sg69" x="224"/><use xlink:href="#sg73" x="252"/><use xlink:href="#sg66" x="266"/><use xlink:href="#sg77" x="280"/><use xlink:href="#sg71" x="308"/><use xlink:href="#sg82" x="322"/><use xlink:href="#sg65" x="336"/><use xlink:href="#sg78" x="350"/><use xlink:href="#sg73" x="364"/><use xlink:href="#sg84" x="378"/><use xlink:href="#sg69" x="392"/><use xlink:href="#sg76" x="420"/><use xlink:href="#sg76" x="434"/><use xlink:href="#sg77" x="448"/><use xlink:href="#sg85" x="476"/><use xlink:href="#sg83" x="490"/><use xlink:href="#sg73" x="504"/><use xlink:href="#sg78" x="518"/><use xlink:href="#sg71" x="532"/><use xlink:href="#sg80" x="560"/><use xlink:href="#sg89" x="574"/><use xlink:href="#sg84" x="588"/><use xlink:href="#sg72" x="602"/><use xlink:href="#sg79" x="616"/><use xlink:href="#sg78" x="630"/><use xlink:href="#sg44" x="644"/><use xlink:href="#sg66" x="672"/><use xlink:href="#sg85" x="686"/><use xlink:href="#sg73" x="700"/><use xlink:href="#sg76" x="714"/><use xlink:href="#sg84" x="728"/></g></g>
<g transform="translate(34.0 145.0) scale(0.6111)" ><g fill="#94a3b8"><use xlink:href="#sg65" x="0"/><use xlink:href="#sg76" x="14"/><use xlink:href="#sg79" x="28"/><use xlink:href="#sg78" x="42"/><use xlink:href="#sg71" x="56"/><use xlink:href="#sg83" x="70"/><use xlink:href="#sg73" x="84"/><use xlink:href="#sg68" x="98"/><use xlink:href="#sg69" x="112"/><use xlink:href="#sg84" x="140"/><use xlink:href="#sg72" x="154"/><use xlink:href="#sg69" x="168"/><use xlink:href="#sg73" x="196"/><use xlink:href="#sg66" x="210"/><use xlink:href="#sg77" x="224"/><use xlink:href="#sg83" x="252"/><use xlink:href="#sg75" x="266"/><use xlink:href="#sg73" x="280"/><use xlink:href="#sg76" x="294"/><use xlink:href="#sg76" x="308"/><use xlink:href="#sg83" x="322"/><use xlink:href="#sg66" x="336"/><use xlink:href="#sg85" x="350"/><use xlink:href="#sg73" x="364"/><use xlink:href="#sg76" x="378"/><use xlink:href="#sg68" x="392"/><use xlink:href="#sg80" x="420"/><use xlink:href="#sg82" x="434"/><use xlink:href="#sg79" x="448"/><use xlink:href="#sg71" x="462"/><use xlink:href="#sg82" x="476"/><use xlink:href="#sg65" x="490"/><use xlink:href="#sg77" x="504"/><use xlink:href="#sg46" x="518"/></g></g>
<circle cx="40" cy="176" r="5" fill="#DA5B0B" filter="url(#glow)"/>
<g transform="translate(54.0 171.0) scale(0.6111)" ><g fill="#7dd3fc"><use xlink:href="#sg74" x="0"/><use xlink:href="#sg85" x="14"/><use xlink:href="#sg80" x="28"/><use xlink:href="#sg89" x="42"/><use xlink:href="#sg84" x="56"/><use xlink:href="#sg69" x="70"/><use xlink:href="#sg82" x="84"/><use xlink:href="#sg78" x="112"/><use xlink:href="#sg79" x="126"/><use xlink:href="#sg84" x="140"/><use xlink:href="#sg69" x="154"/><use xlink:href="#sg66" x="168"/><use xlink:href="#sg79" x="182"/><use xlink:href="#sg79" x="196"/><use xlink:href="#sg75" x="210"/></g></g>
<g transform="translate(420.1 171.0) scale(0.6111)" ><g fill="#fbbf24"><use xlink:href="#sg83" x="0"/><use xlink:href="#sg84" x="14"/><use xlink:href="#sg65" x="28"/><use xlink:href="#sg82" x="42"/><use xlink:href="#sg83" x="56"/><use xlink:href="#sg48" x="84"/><use xlink:href="#sg70" x="126"/><use xlink:href="#sg79" x="140"/><use xlink:href="#sg82" x="154"/><use xlink:href="#sg75" x="168"/><use xlink:href="#sg83" x="182"/><use xlink:href="#sg48" x="210"/></g></g>
</svg>